<?xml version="1.0" encoding="UTF-8"?>
<!DOCTYPE svg PUBLIC "-//W3C//DTD SVG 1.1//EN" "http://www.w3.org/Graphics/SVG/1.1/DTD/svg11.dtd">
<svg xmlns="http://www.w3.org/2000/svg" version="1.1" width="368px" height="106px" style="shape-rendering:geometricPrecision; text-rendering:geometricPrecision; image-rendering:optimizeQuality; fill-rule:evenodd; clip-rule:evenodd" xmlns:xlink="http://www.w3.org/1999/xlink">
<g><path style="opacity:1" fill="#fcfcfc" d="M -0.5,-0.5 C 122.167,-0.5 244.833,-0.5 367.5,-0.5C 367.5,34.8333 367.5,70.1667 367.5,105.5C 244.833,105.5 122.167,105.5 -0.5,105.5C -0.5,70.1667 -0.5,34.8333 -0.5,-0.5 Z"/></g>
<g><path style="opacity:1" fill="#030303" d="M 4.5,5.5 C 124.5,5.5 244.5,5.5 364.5,5.5C 364.5,37.5 364.5,69.5 364.5,101.5C 244.5,101.5 124.5,101.5 4.5,101.5C 4.5,69.5 4.5,37.5 4.5,5.5 Z"/></g>
<g><path style="opacity:1" fill="#fdfdfd" d="M 6.5,8.5 C 124.833,8.5 243.167,8.5 361.5,8.5C 361.5,38.5 361.5,68.5 361.5,98.5C 243.167,98.5 124.833,98.5 6.5,98.5C 6.5,68.5 6.5,38.5 6.5,8.5 Z"/></g>
<g><path style="opacity:1" fill="#020202" d="M 15.5,14.5 C 77.8333,14.5 140.167,14.5 202.5,14.5C 202.5,40.5 202.5,66.5 202.5,92.5C 140.167,92.5 77.8333,92.5 15.5,92.5C 15.5,66.5 15.5,40.5 15.5,14.5 Z"/></g>
<g><path style="opacity:1" fill="#040404" d="M 214.5,39.5 C 220.925,39.1304 227.258,39.6304 233.5,41C 236.089,44.5976 236.089,48.2643 233.5,52C 238.26,57.8024 237.26,62.1357 230.5,65C 225.177,65.4994 219.844,65.666 214.5,65.5C 214.5,56.8333 214.5,48.1667 214.5,39.5 Z"/></g>
<g><path style="opacity:1" fill="#070707" d="M 240.5,39.5 C 245.844,39.334 251.177,39.5006 256.5,40C 262.092,42.4024 263.925,46.5691 262,52.5C 261.215,54.286 260.049,55.786 258.5,57C 259.961,59.4206 261.294,61.9206 262.5,64.5C 256.796,67.0179 253.129,65.3512 251.5,59.5C 250.675,58.6143 249.675,58.281 248.5,58.5C 248.5,60.8333 248.5,63.1667 248.5,65.5C 245.833,65.5 243.167,65.5 240.5,65.5C 240.5,56.8333 240.5,48.1667 240.5,39.5 Z"/></g>
<g><path style="opacity:1" fill="#0b0b0b" d="M 276.5,38.5 C 291.808,38.948 296.975,46.2813 292,60.5C 287.117,65.2037 281.283,66.7037 274.5,65C 266.958,61.0613 264.458,54.8947 267,46.5C 269.362,42.7553 272.528,40.0886 276.5,38.5 Z"/></g>
<g><path style="opacity:1" fill="#0b0b0b" d="M 303.5,38.5 C 308.969,37.7101 313.469,39.3768 317,43.5C 317.49,44.7932 317.657,46.1266 317.5,47.5C 315.076,47.8076 312.743,47.4742 310.5,46.5C 308.5,43.8333 306.5,43.8333 304.5,46.5C 304.977,47.4776 305.643,48.3109 306.5,49C 311.012,49.4994 314.845,51.3327 318,54.5C 319.027,58.1799 318.194,61.3466 315.5,64C 311.289,65.5339 306.956,65.8673 302.5,65C 299.211,63.5897 297.544,61.0897 297.5,57.5C 301.535,56.9003 305.035,57.9003 308,60.5C 310.5,59.6667 311,58.1667 309.5,56C 304.511,55.6873 300.677,53.5207 298,49.5C 297.333,47.5 297.333,45.5 298,43.5C 299.73,41.5981 301.563,39.9314 303.5,38.5 Z"/></g>
<g><path style="opacity:1" fill="#fafafa" d="M 27.5,40.5 C 28.5,40.5 29.5,40.5 30.5,40.5C 30.5,49.1667 30.5,57.8333 30.5,66.5C 29.5,66.5 28.5,66.5 27.5,66.5C 27.5,57.8333 27.5,49.1667 27.5,40.5 Z"/></g>
<g><path style="opacity:1" fill="#f3f3f3" d="M 57.5,58.5 C 57.7828,59.2891 58.2828,59.9558 59,60.5C 59.4996,53.8417 59.6663,47.175 59.5,40.5C 60.5,40.5 61.5,40.5 62.5,40.5C 62.5,49.1667 62.5,57.8333 62.5,66.5C 61.0222,66.762 59.6888,66.4287 58.5,65.5C 54.4749,59.8152 50.4749,54.1486 46.5,48.5C 46.2172,47.7109 45.7172,47.0442 45,46.5C 44.5004,53.1583 44.3337,59.825 44.5,66.5C 43.5,66.5 42.5,66.5 41.5,66.5C 41.5,57.8333 41.5,49.1667 41.5,40.5C 42.9778,40.238 44.3112,40.5713 45.5,41.5C 49.5251,47.1848 53.5251,52.8514 57.5,58.5 Z"/></g>
<g><path style="opacity:1" fill="#555555" d="M 59.5,40.5 C 59.6663,47.175 59.4996,53.8417 59,60.5C 58.2828,59.9558 57.7828,59.2891 57.5,58.5C 58.1667,52.5 58.8333,46.5 59.5,40.5 Z"/></g>
<g><path style="opacity:1" fill="#ebebeb" d="M 81.5,39.5 C 88.3935,38.7863 93.3935,41.4529 96.5,47.5C 95.635,48.5827 94.635,48.7494 93.5,48C 87.8116,42.2254 81.9782,42.0588 76,47.5C 73.1125,53.9868 74.6125,59.1535 80.5,63C 87.6922,65.0793 92.0256,62.5793 93.5,55.5C 90.1667,55.5 86.8333,55.5 83.5,55.5C 83.5,54.5 83.5,53.5 83.5,52.5C 88.1667,52.5 92.8333,52.5 97.5,52.5C 96.6309,64.2921 90.2976,68.7921 78.5,66C 72.1981,61.4345 70.0314,55.2679 72,47.5C 74.1608,43.4952 77.3275,40.8286 81.5,39.5 Z"/></g>
<g><path style="opacity:1" fill="#f8f8f8" d="M 106.5,40.5 C 111.833,40.5 117.167,40.5 122.5,40.5C 122.5,41.5 122.5,42.5 122.5,43.5C 118.167,43.5 113.833,43.5 109.5,43.5C 109.5,46.1667 109.5,48.8333 109.5,51.5C 113.5,51.5 117.5,51.5 121.5,51.5C 121.5,52.5 121.5,53.5 121.5,54.5C 117.5,54.5 113.5,54.5 109.5,54.5C 109.5,57.5 109.5,60.5 109.5,63.5C 113.833,63.5 118.167,63.5 122.5,63.5C 122.5,64.5 122.5,65.5 122.5,66.5C 117.167,66.5 111.833,66.5 106.5,66.5C 106.5,57.8333 106.5,49.1667 106.5,40.5 Z"/></g>
<g><path style="opacity:1" fill="#efefef" d="M 136.5,47.5 C 136.44,46.9569 136.107,46.6236 135.5,46.5C 134.503,53.1335 134.17,59.8002 134.5,66.5C 133.5,66.5 132.5,66.5 131.5,66.5C 131.5,57.8333 131.5,49.1667 131.5,40.5C 133.144,40.2865 134.644,40.6198 136,41.5C 140.333,47.8333 144.667,54.1667 149,60.5C 149.5,53.8417 149.666,47.175 149.5,40.5C 150.5,40.5 151.5,40.5 152.5,40.5C 152.5,49.1667 152.5,57.8333 152.5,66.5C 150.61,66.7035 149.11,66.0368 148,64.5C 144.157,58.8046 140.323,53.1379 136.5,47.5 Z"/></g>
<g><path style="opacity:1" fill="#fefffe" d="M 163.5,40.5 C 164.5,40.5 165.5,40.5 166.5,40.5C 166.5,49.1667 166.5,57.8333 166.5,66.5C 165.5,66.5 164.5,66.5 163.5,66.5C 163.5,57.8333 163.5,49.1667 163.5,40.5 Z"/></g>
<g><path style="opacity:1" fill="#f3f3f3" d="M 177.5,40.5 C 182.833,40.5 188.167,40.5 193.5,40.5C 193.5,41.5 193.5,42.5 193.5,43.5C 189.167,43.5 184.833,43.5 180.5,43.5C 180.5,46.1667 180.5,48.8333 180.5,51.5C 184.5,51.5 188.5,51.5 192.5,51.5C 192.5,52.5 192.5,53.5 192.5,54.5C 188.5,54.5 184.5,54.5 180.5,54.5C 180.5,57.5 180.5,60.5 180.5,63.5C 184.833,63.5 189.167,63.5 193.5,63.5C 193.5,64.5 193.5,65.5 193.5,66.5C 188.167,66.5 182.833,66.5 177.5,66.5C 177.5,57.8333 177.5,49.1667 177.5,40.5 Z"/></g>
<g><path style="opacity:1" fill="#e5e5e5" d="M 221.5,44.5 C 223.527,44.3379 225.527,44.5045 227.5,45C 228.833,46.3333 228.833,47.6667 227.5,49C 225.527,49.4955 223.527,49.6621 221.5,49.5C 221.5,47.8333 221.5,46.1667 221.5,44.5 Z"/></g>
<g><path style="opacity:1" fill="#f2f2f2" d="M 248.5,45.5 C 253.006,44.5272 255.172,46.1939 255,50.5C 254.617,51.056 254.117,51.3893 253.5,51.5C 251.833,51.5 250.167,51.5 248.5,51.5C 248.5,49.5 248.5,47.5 248.5,45.5 Z"/></g>
<g><path style="opacity:1" fill="#949494" d="M 136.5,47.5 C 135.833,53.8333 135.167,60.1667 134.5,66.5C 134.17,59.8002 134.503,53.1335 135.5,46.5C 136.107,46.6236 136.44,46.9569 136.5,47.5 Z"/></g>
<g><path style="opacity:1" fill="#f2f2f2" d="M 277.5,45.5 C 286.515,45.6232 288.848,49.6232 284.5,57.5C 276.765,60.2581 273.265,57.5915 274,49.5C 275.376,48.2949 276.542,46.9616 277.5,45.5 Z"/></g>
<g><path style="opacity:1" fill="#535353" d="M 46.5,48.5 C 45.8333,54.5 45.1667,60.5 44.5,66.5C 44.3337,59.825 44.5004,53.1583 45,46.5C 45.7172,47.0442 46.2172,47.7109 46.5,48.5 Z"/></g>
<g><path style="opacity:1" fill="#797979" d="M 248.5,45.5 C 248.5,47.5 248.5,49.5 248.5,51.5C 250.167,51.5 251.833,51.5 253.5,51.5C 251.735,52.4614 249.735,52.7947 247.5,52.5C 247.198,49.9407 247.532,47.6074 248.5,45.5 Z"/></g>
<g><path style="opacity:1" fill="#989898" d="M 227.5,55.5 C 225.833,55.5 224.167,55.5 222.5,55.5C 222.5,56.8333 222.5,58.1667 222.5,59.5C 224.167,59.5 225.833,59.5 227.5,59.5C 225.735,60.4614 223.735,60.7947 221.5,60.5C 221.5,58.5 221.5,56.5 221.5,54.5C 223.735,54.2053 225.735,54.5386 227.5,55.5 Z"/></g>
<g><path style="opacity:1" fill="#fdfdfd" d="M 227.5,55.5 C 228.833,56.8333 228.833,58.1667 227.5,59.5C 225.833,59.5 224.167,59.5 222.5,59.5C 222.5,58.1667 222.5,56.8333 222.5,55.5C 224.167,55.5 225.833,55.5 227.5,55.5 Z"/></g>
</svg>
